<?xml version="1.0" encoding="utf-8"?>
<!-- Generator: Adobe Illustrator 21.1.0, SVG Export Plug-In . SVG Version: 6.00 Build 0)  -->
<svg version="1.1" id="Layer_1" xmlns="http://www.w3.org/2000/svg" xmlns:xlink="http://www.w3.org/1999/xlink" x="0px" y="0px"
	 viewBox="0 0 300 149" style="enable-background:new 0 0 300 149;" xml:space="preserve">
<style type="text/css">
	.st0{fill:#00328C;}
	.st1{fill:#FFFFFF;}
</style>
<g>
	<path class="st0" d="M208.1,48.5c-39.8-5.4-77.5,7-103.7,30.7c13.6,35.2,47.6,62.8,90.3,68.5c42.8,5.8,82.9-11.7,105.3-42.1
		C280.9,75.8,247.9,53.9,208.1,48.5z M74,40.2c0,0,2.2-0.4,6.9,0.7c0.2,0,0.3,0,0.5,0.1c19.1,4.1,18.3-15.1,19.5-23.4
		C102,8.6,105.6,6,105.6,6c-18.1,0.9-26.4,6.9-30,13.5c-2.9,5.2-2.9,9.7-2.2,13.6C74.4,38,74,40.2,74,40.2z M131.8,27.2
		c0,0.1,0.1,0.3,0.1,0.4c1.2,4.9,5,7.9,7.8,8.9c3.4,1.2,2.8,3.9,2.8,3.9c6.2-9.8,6.6-15.3,6.6-15.3l0,0c1-6.8-1.7-14.7-16.8-18
		c0,0-2.8,11-0.6,19.6C131.7,26.8,131.7,27,131.8,27.2z M179.2,25.5c1.9,0.5,3.9,0.7,5.8,0.7c0.3,0,0.6,0,0.9-0.1c0.1,0,0.1,0,0.2,0
		c12.2-1.1,19.6-15.3,19.6-15.3s-5.9,3.4-18.7,1.1c-1.4-0.2-2.6-0.3-3.7-0.2C172.9,11.8,168.8,25,168.8,25
		C168.8,24.7,172,23.4,179.2,25.5z M111.6,118c-2-3.9-4-5.6-4-5.6c-8.5-7.9-13.6-1.4-13.6-1.4s1.6-0.3,2.3,5.7
		c0.1,0.5,0.1,0.9,0.2,1.4c0.1,1.9,0.4,3.6,0.8,5.1c0,0.1,0.1,0.2,0.1,0.3c3.3,14,21.4,8.1,20,7.5C115,129.8,113.4,121.6,111.6,118z
		 M99.3,80c0.3,0,0.5,0,0.6,0c0.1,0,1.5-0.1,1.4-1.3c-0.1-1.2-1.5-1.3-1.7-1.3c-0.9-0.1-1.8-0.2-2.6-0.4c-0.1,0-0.2,0-0.3-0.1
		c-0.2,0-0.3-0.1-0.5-0.1c-3.5-0.8-6.4-1.9-8.9-3.4c-3.2-1.9-6.8-4.9-10.3-10.7c-3.5-5.7-5.8-8.9-6.9-10.2
		c7.5,2.4,35.6,9.4,72.3-2.9c1.9-0.6,4.9-1.6,8.4-3c3.5-1.4,9.2-3.5,13.6-5.1l0,0c1.3-0.5,9-3.3,10.6-4.1c0.4-0.2,1.6-0.5,1.4-1.8
		c-0.2-1.2-1.7-0.9-1.7-0.9c-0.1,0-2,0.6-3.9,1.3c-4.5,1.4-12.2,3.7-10.9,1.3v0c3.7-5.8,7.3-15.7,6.7-31.3c0-1.3-0.1-3.5-0.2-4.6
		c0-0.2-0.1-1.3-1-1.5c-1-0.1-1,1.1-1,1.1c0,0.2,0,2.1,0,2.9c-0.1,20-4.8,31.3-16.9,37.6c-12.1,6.3-33.9,8-48.6,7.2
		c-14.6-0.8-26.8-5.1-36-10c-4.6-2.5-9.6-5.7-14.4-9.3c-8-6-15.2-12.6-23.1-14.7c-0.8-0.2-1.7-0.4-2.5-0.4c-0.1,0-0.2,0-0.2,0
		c0,0-0.1,0-0.1,0c-2.8-0.2-4.8,0.3-5.3,0.5C17,15,16.9,15,16.7,15c-0.2,0.1-0.4,0.1-0.6,0.2c0,0-0.1,0-0.1,0.1
		c-0.5,0.2-1,0.4-1.5,0.7c-1.3,0.6-2.4,1.4-3.6,2.2c-0.3,0.2-0.5,0.3-0.8,0.5l-1.5,0.9c-0.2,0.2-0.5,0.3-0.8,0.4
		c-0.2,0.1-0.3,0.2-0.5,0.2c-0.1,0.1-0.3,0.1-0.4,0.2c-0.3,0.1-0.6,0.2-0.8,0.3c-1.6,0.5-3.3,0.8-5.2,0.8c-0.1,0-0.2,0-0.3,0
		C0.3,21.7,0.1,22,0,22.3c-0.1,0.4,0,0.9,0.5,1.1c0,0,3,0.6,7.3,1.6c1.8,0.5,4.6,1.2,7.8,2.2c2.4,0.8,5.1,1.7,8,2.9
		c4.6,1.9,9.1,4.3,12.3,7.3c0.7,0.7,1.3,1.4,1.8,2.1c0.5,0.8,1,1.7,1.3,2.6c0.1,0.2,0.1,0.4,0.2,0.6c1.4,4.2,0.6,8.8-0.3,12.1
		c-0.4,1.4-1,2.8-1.5,4.2c0,0,0,0,0,0c-0.4,0.9-0.8,1.7-1.2,2.5c-0.7,1.2-1.4,2.4-2.1,3.5c-0.5,0.7-0.6,1.4-0.3,1.9
		c0.2,0.4,0.7,0.6,1.1,0.6c0.4,0,0.9-0.2,1.5-1.2c2.7-4,4.4-7.7,5.6-11c2.4-6.5,2.1-11.9,1.6-15.1c7.8,4.8,15.6,11,22.5,18.8
		c4.1,4.9,8,10.5,11.4,17c1.1,2.1,2.1,4.2,3,6.4c1.2,3.3,2.5,7.9,1.9,12c-0.6,4.3-2.8,7.9-5.2,10.8c-1.9,2.1-4.4,4.1-7.6,5.8
		c-2,1-3.6,1.6-4.5,1.9c-0.1,0-0.1,0.1-0.2,0.1c-0.1,0-0.2,0.1-0.3,0.1c0,0-1.4,0.5-0.9,1.6c0.2,0.5,0.6,0.7,1,0.8
		c0.2,0,0.6,0.1,1.7-0.2c1-0.3,3.1-0.9,5.5-2.1c0.1-0.1,0.2-0.1,0.4-0.2c0.1-0.1,0.2-0.1,0.3-0.2c2.7-1.4,5.6-3.5,8.3-6.7
		c0.2-0.3,0.4-0.5,0.7-0.9c0.2-0.2,0.3-0.4,0.5-0.6c0.6-0.8,1.1-1.6,1.6-2.5c0.7-1.2,1.3-2.4,1.7-3.3c2.7,15.3-0.3,29.8-8.9,43h0
		c0,0-1.1,1.6-1.3,1.9c0,0-0.8,1.3,0.3,1.9c1.1,0.6,1.9-0.6,2.1-0.8c0.8-0.9,1.5-1.8,2.1-2.6c2.9-3.7,7.6-11,9.9-21.2
		c2.4-10.6,2.6-26.2-6.3-45.8C89.7,79.3,96.2,79.9,99.3,80z M74,102.5c-0.3,0-2.7-0.1-5.9-7.1c-1.6-3.6-4.3-7.3-8-9.5
		c-0.3-0.2-0.6-0.4-1-0.5c0,0,0,0-0.1,0c-13.2-6.6-27.1,9.3-25.7,8.9c5.5-1.6,8.9,4,14,8.6c1.1,1,2.4,2.2,4.3,3.5
		C64.3,115.1,74,102.5,74,102.5z M37.4,58.9C37.4,58.9,37.4,58.9,37.4,58.9C37.4,58.9,37.4,58.9,37.4,58.9L37.4,58.9z"/>
	<g>
		<path class="st1" d="M201.3,84.6c-8.8,0-15.9,7.1-15.9,15.9c0,8.8,7.1,15.9,15.9,15.9c6.3,0,11.8-3.7,14.3-9
			c0.2-0.3,0.1-0.7-0.1-1c-0.2-0.3-0.5-0.5-0.9-0.5h-4.1c-0.7,0-1.3,0.3-1.7,0.8c-1.8,2.2-4.5,3.6-7.5,3.6c-5,0-9.1-3.8-9.7-8.6h7.4
			h12h5.1c0.6,0,1.1-0.5,1.1-1.1C217.2,91.7,210.1,84.6,201.3,84.6z M192.4,96.4c1.5-3.4,4.9-5.7,8.9-5.7c3.9,0,7.3,2.3,8.9,5.7
			H192.4z"/>
		<path class="st1" d="M262.3,84.6c-8.8,0-15.9,7.1-15.9,15.9c0,8.8,7.1,15.9,15.9,15.9c8.8,0,15.9-7.1,15.9-15.9
			C278.3,91.7,271.1,84.6,262.3,84.6z M262.3,110.3c-5.4,0-9.8-4.4-9.8-9.8c0-5.4,4.4-9.8,9.8-9.8c5.4,0,9.8,4.4,9.8,9.8
			C272.1,105.9,267.7,110.3,262.3,110.3z"/>
		<path class="st1" d="M161.2,75.6v0.8c0,0.5,0.4,1,0.9,1.1l1,0.2v13.7h-9.6V77.6l1-0.2c0.5-0.1,0.9-0.5,0.9-1.1v-0.8
			c-3.6,0.1-7.1,0.1-10.6,0.1c-3.5,0-6.4-0.1-9.8-0.1v0.8c0,0.5,0.4,1,0.9,1.1l1.5,0.2v35.8l-1.5,0.2c-0.5,0.1-0.9,0.5-0.9,1.1v0.8
			c3.3-0.1,6.2-0.1,9.6-0.1c3.5,0,7.1,0,10.7,0.1v-0.8c0-0.5-0.4-1-0.9-1.1l-1-0.2V96.6h9.6v16.8l-1,0.2c-0.5,0.1-0.9,0.5-0.9,1.1
			v0.8c3.5-0.1,6.5-0.1,10.1-0.1c3.6,0,6.7,0,10.2,0.1v-0.8c0-0.5-0.4-1-0.9-1.1l-1.5-0.2V77.7l1.5-0.2c0.5-0.1,0.9-0.5,0.9-1.1
			v-0.8c-3.8,0.1-7,0.1-10.6,0.1C167.5,75.7,164.5,75.6,161.2,75.6z"/>
		<path class="st1" d="M240.1,113.6l-1.3-0.2V88.5c2.3,0,6.7-0.4,10.2-4.3c3.9-4.4,2.2-10.4-2.5-11c-4.7-0.6-6.5,2.3-7.6,5.1
			c-1.1,2.8-1.5,3.6-2.5,5.6c-0.2,0.4-0.4,0.6-0.5,0.9c-0.3,0.3-0.6,0.4-0.7,0.4c-1.6,0-3.2,0-4.8,0c-3.4,0-6.4,0-9.7-0.1v0.8
			c0,0.5,0.4,1,0.9,1.1l1.2,0.2v26.4l-1.2,0.2c-0.5,0.1-0.9,0.5-0.9,1.1v0.8c3.3-0.1,6.2-0.1,9.6-0.1c3.5,0,7.1,0,10.7,0.1v-0.8
			C241,114.1,240.6,113.7,240.1,113.6z"/>
	</g>
</g>
</svg>
