<svg version="1.1" id="Layer_1" xmlns="http://www.w3.org/2000/svg" xmlns:xlink="http://www.w3.org/1999/xlink" x="0px" y="0px"
	 viewBox="0 0 841.9 117.1" style="enable-background:new 0 0 841.9 117.1;" xml:space="preserve">
<style type="text/css">
	.st0{fill:#6584B9;}
	.st1{fill:#223A7D;}
	.st2{fill:#FFFFFF;}
</style>
<g>
	<path class="st0" d="M841.9,117.1H0V42.9C46.2,25.2,86.9,0,272.9,0c213.3,0,306.4,60,464.6,60c52.5,0,79.2-7.4,104.3-17.1v74.2
		H841.9z"/>
	<g>
		<path class="st1" d="M115,41.3c7.5-0.7,12.1-9.5,12.1-9.5s-3.6,2.1-11.6,0.7c-0.9-0.1-1.6-0.2-2.3-0.1c-6.4,0.1-9,8.2-9,8.2
			c0-0.2,2-1,6.4,0.3c1.2,0.3,2.4,0.4,3.6,0.4c0.2,0,0.4,0,0.6-0.1C115,41.3,115,41.3,115,41.3z"/>
		<path class="st1" d="M69,98.1c-1.2-2.4-2.5-3.5-2.5-3.5c-5.3-4.9-8.4-0.9-8.4-0.9s1-0.2,1.4,3.5c0.1,0.3,0.1,0.6,0.1,0.9
			c0.1,1.2,0.2,2.2,0.5,3.2c0,0.1,0.1,0.1,0.1,0.2c2,8.7,13.2,5,12.4,4.6C71.1,105.4,70.1,100.3,69,98.1z"/>
		<path class="st1" d="M120.3,116.4c26.5,3.6,51.2-7.2,65.1-26c-11.8-18.4-32.2-32-56.8-35.3c-24.6-3.3-47.9,4.3-64.1,19
			C72.9,95.8,94,112.9,120.3,116.4z"/>
		<path class="st1" d="M45.8,88.5c-0.2,0-1.7-0.1-3.6-4.4c-1-2.2-2.7-4.5-4.9-5.9c-0.2-0.1-0.4-0.2-0.6-0.3c0,0,0,0-0.1,0
			c-8.2-4.1-16.7,5.7-15.9,5.5c3.4-1,5.5,2.5,8.7,5.3c0.7,0.6,1.5,1.4,2.7,2.2C39.8,96.3,45.8,88.5,45.8,88.5z"/>
		<path class="st1" d="M9.7,41.9c1.5,0.5,3.2,1.1,4.9,1.8c2.8,1.2,5.6,2.7,7.6,4.5c0.4,0.4,0.8,0.9,1.1,1.3c0.3,0.5,0.6,1.1,0.8,1.6
			c0.1,0.1,0.1,0.2,0.1,0.4c0.9,2.6,0.4,5.4-0.2,7.5c-0.2,0.9-0.6,1.7-0.9,2.6c-0.2,0.6-0.5,1.1-0.7,1.5c-0.4,0.7-0.9,1.5-1.3,2.2
			c-0.3,0.4-0.4,0.9-0.2,1.2c0.1,0.2,0.4,0.4,0.7,0.4c0.2,0,0.6-0.1,0.9-0.7c1.7-2.5,2.7-4.8,3.5-6.8c1.5-4,1.3-7.4,1-9.3
			c4.8,3,9.6,6.8,13.9,11.6c2.5,3,4.9,6.5,7,10.5c0.7,1.3,1.3,2.6,1.9,4c0.7,2,1.5,4.9,1.2,7.4c-0.4,2.7-1.7,4.9-3.2,6.7
			c-1.2,1.3-2.7,2.5-4.7,3.6c-1.2,0.6-2.2,1-2.8,1.2c-0.1,0-0.1,0.1-0.1,0.1C40.1,95,40,95,39.9,95c0,0-0.9,0.3-0.6,1
			c0.1,0.3,0.4,0.4,0.6,0.5c0.1,0,0.4,0.1,1.1-0.1c0.6-0.2,1.9-0.6,3.4-1.3c0.1-0.1,0.1-0.1,0.2-0.1c0.1-0.1,0.1-0.1,0.2-0.1
			c1.7-0.9,3.5-2.2,5.1-4.1c0.1-0.2,0.2-0.3,0.4-0.6c0.1-0.1,0.2-0.2,0.3-0.4c0.4-0.5,0.7-1,1-1.5c0.4-0.7,0.8-1.5,1.1-2
			c1.7,9.5-0.2,18.4-5.5,26.6c0,0-0.7,1-0.8,1.2c0,0-0.5,0.8,0.2,1.2c0.7,0.4,1.2-0.4,1.3-0.5c0.5-0.6,0.9-1.1,1.3-1.6
			c1.8-2.3,4.7-6.8,6.1-13.1c1.5-6.6,1.6-16.2-3.9-28.3c4,2.5,8,2.9,9.9,3c0.2,0,0.3,0,0.4,0c0.1,0,0.9-0.1,0.9-0.8
			C62.6,73,61.7,73,61.6,73c-0.6-0.1-1.1-0.1-1.6-0.2c-0.1,0-0.1,0-0.2-0.1c-0.1,0-0.2-0.1-0.3-0.1c-2.2-0.5-4-1.2-5.5-2.1
			c-2-1.2-4.2-3-6.4-6.6c-2.2-3.5-3.6-5.5-4.3-6.3c4.6,1.5,22,5.8,44.7-1.8c1.2-0.4,3-1,5.2-1.9c2.2-0.9,5.7-2.2,8.4-3.2
			c0.8-0.3,5.6-2,6.6-2.5c0.2-0.1,1-0.3,0.9-1.1c-0.1-0.7-1.1-0.6-1.1-0.6c-0.1,0-1.2,0.4-2.4,0.8c-2.8,0.9-7.5,2.3-6.7,0.8
			c2.3-3.6,4.5-9.7,4.1-19.3c0-0.8-0.1-2.2-0.1-2.8c0-0.1-0.1-0.8-0.6-0.9c-0.6-0.1-0.6,0.7-0.6,0.7c0,0.1,0,1.3,0,1.8
			c-0.1,12.4-3,19.3-10.4,23.2s-21,4.9-30,4.4c-9-0.5-16.6-3.2-22.2-6.2C36,47.5,33,45.5,30,43.3c-3.9-2.9-7.5-6.1-11.2-7.9
			c-4.5,1.8-8.9,3.6-13.3,5.4C6.6,41.1,8,41.4,9.7,41.9z"/>
		<path class="st1" d="M50,50.4c0.1,0,0.2,0,0.3,0.1C62.1,53,61.6,41.1,62.4,36c0.7-5.6,2.9-7.2,2.9-7.2
			c-11.2,0.6-16.3,4.3-18.5,8.3c-1.8,3.2-1.8,6-1.4,8.4c0.6,3,0.4,4.4,0.4,4.4S47.1,49.7,50,50.4z"/>
		<path class="st1" d="M92.2,40.6c0.6-4.2-1.1-9.1-10.4-11.1c0,0-1.7,6.8-0.4,12.1c0,0.1,0,0.2,0.1,0.3c0,0.1,0.1,0.2,0.1,0.2
			c0.7,3,3.1,4.9,4.8,5.5c2.1,0.7,1.7,2.4,1.7,2.4C91.9,44,92.2,40.6,92.2,40.6z"/>
	</g>
	<g>
		<path class="st2" d="M124.4,77.4c-5.4,0-9.8,4.4-9.8,9.8c0,5.4,4.4,9.8,9.8,9.8c3.9,0,7.3-2.3,8.8-5.6c0.1-0.2,0.1-0.4-0.1-0.6
			c-0.1-0.2-0.3-0.3-0.6-0.3h-2.5c-0.4,0-0.8,0.2-1.1,0.5c-1.1,1.4-2.8,2.2-4.6,2.2c-3.1,0-5.6-2.3-6-5.3h4.6h7.4h3.2
			c0.4,0,0.7-0.3,0.7-0.7C134.3,81.8,129.9,77.4,124.4,77.4z M118.9,84.7c0.9-2.1,3-3.5,5.5-3.5c2.4,0,4.5,1.4,5.5,3.5H118.9z"/>
		<path class="st2" d="M162.1,77.4c-5.4,0-9.8,4.4-9.8,9.8c0,5.4,4.4,9.8,9.8,9.8s9.8-4.4,9.8-9.8C172,81.8,167.6,77.4,162.1,77.4z
			 M162.1,93.3c-3.3,0-6.1-2.7-6.1-6.1s2.7-6.1,6.1-6.1s6.1,2.7,6.1,6.1C168.2,90.6,165.5,93.3,162.1,93.3z"/>
		<path class="st2" d="M99.6,71.9v0.5c0,0.3,0.2,0.6,0.6,0.7l0.6,0.1v8.5h-5.9v-8.5l0.6-0.1c0.3-0.1,0.6-0.3,0.6-0.7v-0.5
			c-2.2,0.1-4.4,0.1-6.6,0.1s-4-0.1-6.1-0.1v0.5c0,0.3,0.2,0.6,0.6,0.7l0.9,0.1v22.1L84,95.3c-0.3,0.1-0.6,0.3-0.6,0.7v0.5
			c2-0.1,3.8-0.1,5.9-0.1c2.2,0,4.4,0,6.6,0.1V96c0-0.3-0.2-0.6-0.6-0.7l-0.6-0.1V84.8h5.9v10.4l-0.6,0.1c-0.3,0.1-0.6,0.3-0.6,0.7
			v0.5c2.2-0.1,4-0.1,6.2-0.1c2.2,0,4.1,0,6.3,0.1V96c0-0.3-0.2-0.6-0.6-0.7l-0.9-0.1V73.2l0.9-0.1c0.3-0.1,0.6-0.3,0.6-0.7v-0.5
			c-2.3,0.1-4.3,0.1-6.6,0.1C103.5,71.9,101.7,71.9,99.6,71.9z"/>
		<path class="st2" d="M148.4,95.3l-0.8-0.1V79.8c1.4,0,4.1-0.2,6.3-2.7c2.4-2.7,1.4-6.4-1.5-6.8c-2.9-0.4-4,1.4-4.7,3.2
			c-0.7,1.7-0.9,2.2-1.5,3.5c-0.1,0.2-0.2,0.4-0.3,0.6c-0.2,0.2-0.4,0.2-0.4,0.2c-1,0-2,0-3,0c-2.1,0-4,0-6-0.1v0.5
			c0,0.3,0.2,0.6,0.6,0.7l0.7,0.1v16.3l-0.7,0.1c-0.3,0.1-0.6,0.3-0.6,0.7v0.5c2-0.1,3.8-0.1,5.9-0.1c2.2,0,4.4,0,6.6,0.1v-0.5
			C149,95.7,148.7,95.4,148.4,95.3z"/>
	</g>
</g>
</svg>
