<svg xmlns="http://www.w3.org/2000/svg" width="24" height="20" viewBox="0 0 24 20">
  <path fill="#FEFEFE" fill-rule="evenodd" d="M35.9764507,17.3041639 C35.0940702,17.6954224 34.1471824,17.9604176 33.1522946,18.0788371 C34.1681971,17.470642 34.94568,16.5056663 35.3142263,15.3596371 C34.3614263,15.9228176 33.3095824,16.3319298 32.188958,16.5537249 C31.2914751,15.5963005 30.0148507,14.9999883 28.5990263,14.9999883 C25.8827532,14.9999883 23.6803141,17.2024273 23.6803141,19.9172956 C23.6803141,20.3023493 23.7237483,20.6782712 23.8076898,21.03792 C19.7204312,20.8325737 16.0961971,18.8743493 13.670558,15.8988176 C13.246402,16.6241444 13.0051727,17.4690029 13.0051727,18.3711102 C13.0051727,20.0775688 13.8743239,21.5833054 15.1927434,22.464281 C14.3866946,22.4372956 13.6284702,22.2155005 12.9648995,21.8468956 L12.9648995,21.9084176 C12.9648995,24.2906224 14.66088,26.278759 16.9097385,26.7313054 C16.4976995,26.8421737 16.063241,26.9037541 15.61368,26.9037541 C15.296119,26.9037541 14.9889776,26.8722029 14.6878654,26.8122615 C15.3142068,28.767559 17.1300117,30.1893541 19.2814068,30.2282224 C17.5988898,31.546642 15.4774068,32.3302127 13.1729971,32.3302127 C12.7760605,32.3302127 12.3850361,32.3062712 11.9999824,32.2627785 C14.1770166,33.6608078 16.7613483,34.4757541 19.539319,34.4757541 C28.5871434,34.4757541 33.5330166,26.9814322 33.5330166,20.4820566 L33.5165678,19.8452371 C34.4828312,19.1560859 35.3188507,18.2901541 35.9764507,17.3041639" transform="translate(-12 -15)"/>
</svg>
